<svg xmlns="http://www.w3.org/2000/svg" viewBox="0 0 24 24" width="24" height="24">
  <!-- Filter funnel shape -->
  <path d="M2,4L9,14v6l6,-2v-4l7,-10z" fill="#f1c40f" stroke="#f39c12" stroke-width="1" stroke-linejoin="round" />
  
  <!-- Liquid drops -->
  <path d="M12,19.5c0,0.5 -0.5,1.5 -1,2s-2,0.5 -2,0s0.5,-1.5 1,-2s2,-0.5 2,0z" fill="#e67e22" />
  <path d="M14,17.5c0,0.5 -0.5,1.5 -1,2s-2,0.5 -2,0s0.5,-1.5 1,-2s2,-0.5 2,0z" fill="#e67e22" />
  
  <!-- Filter stripes -->
  <line x1="4" y1="6" x2="20" y2="6" stroke="#e67e22" stroke-width="1" />
  <line x1="6" y1="8" x2="18" y2="8" stroke="#e67e22" stroke-width="1" />
  <line x1="8" y1="10" x2="16" y2="10" stroke="#e67e22" stroke-width="1" />
</svg>
