<svg xmlns="http://www.w3.org/2000/svg" viewBox="0 0 24 24" width="24" height="24">
  <!-- Speech bubble -->
  <path d="M4,4h16c1.1,0,2,0.9,2,2v9c0,1.1-0.9,2-2,2h-6l-5,4v-4H4c-1.1,0-2-0.9-2-2V6C2,4.9,2.9,4,4,4z" fill="#3498db" />
  
  <!-- Text symbols -->
  <text x="7.5" y="12" font-family="Arial, sans-serif" font-weight="bold" font-size="8" fill="#ffffff" text-anchor="middle">VO</text>
  
  <!-- Subtitle indication -->
  <line x1="14" y1="9" x2="18" y2="9" stroke="#ffffff" stroke-width="1" />
  <line x1="14" y1="12" x2="18" y2="12" stroke="#ffffff" stroke-width="1" />
  
  <!-- Globe indication -->
  <circle cx="18" cy="7" r="2" fill="#f1c40f" stroke="#ffffff" stroke-width="0.5" />
  <path d="M18,5c0,0 -1,0.75 -1,2s1,2 1,2" fill="none" stroke="#ffffff" stroke-width="0.5" />
  <path d="M18,5c0,0 1,0.75 1,2s-1,2 -1,2" fill="none" stroke="#ffffff" stroke-width="0.5" />
  <line x1="16" y1="7" x2="20" y2="7" stroke="#ffffff" stroke-width="0.5" />
</svg>
