<svg xmlns="http://www.w3.org/2000/svg" viewBox="0 0 24 24" width="24" height="24">
  <!-- Clock face -->
  <circle cx="12" cy="12" r="10" fill="#ecf0f1" stroke="#bdc3c7" stroke-width="1" />
  
  <!-- Clock center -->
  <circle cx="12" cy="12" r="1" fill="#7f8c8d" />
  
  <!-- Hour marks -->
  <line x1="12" y1="4" x2="12" y2="5" stroke="#7f8c8d" stroke-width="1" />
  <line x1="12" y1="19" x2="12" y2="20" stroke="#7f8c8d" stroke-width="1" />
  <line x1="4" y1="12" x2="5" y2="12" stroke="#7f8c8d" stroke-width="1" />
  <line x1="19" y1="12" x2="20" y2="12" stroke="#7f8c8d" stroke-width="1" />
  <line x1="6.34" y1="6.34" x2="7.05" y2="7.05" stroke="#7f8c8d" stroke-width="1" />
  <line x1="16.95" y1="16.95" x2="17.66" y2="17.66" stroke="#7f8c8d" stroke-width="1" />
  <line x1="6.34" y1="17.66" x2="7.05" y2="16.95" stroke="#7f8c8d" stroke-width="1" />
  <line x1="16.95" y1="7.05" x2="17.66" y2="6.34" stroke="#7f8c8d" stroke-width="1" />
  
  <!-- Clock hands -->
  <line x1="12" y1="12" x2="12" y2="7" stroke="#e74c3c" stroke-width="1.5" stroke-linecap="round" />
  <line x1="12" y1="12" x2="16" y2="12" stroke="#2c3e50" stroke-width="1" stroke-linecap="round" />
  
  <!-- Film frames around clock -->
  <rect x="1" y="10" width="1.5" height="4" fill="#34495e" />
  <rect x="21.5" y="10" width="1.5" height="4" fill="#34495e" />
  <rect x="10" y="1" width="4" height="1.5" fill="#34495e" />
  <rect x="10" y="21.5" width="4" height="1.5" fill="#34495e" />
</svg>
